<?xml version="1.0" encoding="UTF-8" standalone="no"?>
<!-- Generator: Adobe Illustrator 10.0, SVG Export Plug-In . SVG Version: 3.0.0 Build 76)  -->

<svg
   xmlns:ns5="http://ns.adobe.com/SaveForWeb/1.0/"
   xmlns:ns4="http://ns.adobe.com/Variables/1.0/"
   xmlns:ns3="http://ns.adobe.com/AdobeIllustrator/10.0/"
   xmlns:dc="http://purl.org/dc/elements/1.1/"
   xmlns:cc="http://creativecommons.org/ns#"
   xmlns:rdf="http://www.w3.org/1999/02/22-rdf-syntax-ns#"
   xmlns:svg="http://www.w3.org/2000/svg"
   xmlns="http://www.w3.org/2000/svg"
   xmlns:xlink="http://www.w3.org/1999/xlink"
   xmlns:sodipodi="http://sodipodi.sourceforge.net/DTD/sodipodi-0.dtd"
   xmlns:inkscape="http://www.inkscape.org/namespaces/inkscape"
   ns3:viewOrigin="253.667 498.5132"
   ns3:rulerOrigin="0 0"
   ns3:pageBounds="0 595.4453 841.8896 0"
   width="450"
   height="452"
   viewBox="0 0 449.99999 452.00001"
   overflow="visible"
   enable-background="new 0 0 308.669 326.878"
   xml:space="preserve"
   id="svg2"
   version="1.1"
   inkscape:version="0.91 r13725"
   sodipodi:docname="Logo_Racing_MeÌtro_92.svg"
   style="overflow:visible"><defs
     id="defs117"><defs
       id="defs39"><path
         id="XMLID_5_"
         d="m 0,326.878 308.669,0 L 308.669,0 0,0 0,326.878 Z"
         inkscape:connector-curvature="0" /></defs><clipPath
       id="XMLID_6_"><use
         xlink:href="#XMLID_5_"
         id="use43"
         x="0"
         y="0"
         width="100%"
         height="100%" /></clipPath></defs><sodipodi:namedview
     pagecolor="#ffffff"
     bordercolor="#666666"
     borderopacity="1"
     objecttolerance="10"
     gridtolerance="10"
     guidetolerance="10"
     inkscape:pageopacity="0"
     inkscape:pageshadow="2"
     inkscape:window-width="1280"
     inkscape:window-height="691"
     id="namedview115"
     showgrid="false"
     inkscape:zoom="0.53531608"
     inkscape:cx="-142.93213"
     inkscape:cy="65.704574"
     inkscape:window-x="0"
     inkscape:window-y="1"
     inkscape:window-maximized="1"
     inkscape:current-layer="svg2" /><metadata
     id="metadata4"><ns4:variableSets><ns4:variableSet
         varSetName="binding1"
         locked="none"><ns4:variables /><ns4:sampleDataSets /></ns4:variableSet></ns4:variableSets><ns5:sfw><ns5:slices /><ns5:sliceSourceBounds
         y="171.635"
         x="253.667"
         width="308.669"
         height="326.878"
         bottomLeftOrigin="true" /></ns5:sfw><rdf:RDF><cc:Work
         rdf:about=""><dc:format>image/svg+xml</dc:format><dc:type
           rdf:resource="http://purl.org/dc/dcmitype/StillImage" /><dc:title></dc:title></cc:Work></rdf:RDF></metadata><ns3:pgf
     id="adobe_illustrator_pgf" /><style
     id="style4846"
     type="text/css">
	.st0{fill:#231F20;}
	.st1{fill:#B2D9F4;}
	.st2{clip-path:url(#SVGID_2_);}
	.st3{fill:#FFFFFF;}
	.st4{fill:none;stroke:#FFFFFF;stroke-width:1.73;}
</style><g
     id="g4613"
     transform="translate(0,-0.09707)"><g
       transform="matrix(1.0628294,0,0,1.0628294,394.95835,47.60535)"
       style="fill:#c2e0f7;fill-opacity:1"
       id="g11"><defs
         id="defs13"><path
           id="XMLID_1_"
           d="m 0,326.878 308.669,0 L 308.669,0 0,0 0,326.878 Z"
           inkscape:connector-curvature="0" /></defs><clipPath
         id="XMLID_2_"><use
           xlink:href="#XMLID_1_"
           id="use17"
           x="0"
           y="0"
           width="100%"
           height="100%" /></clipPath></g><g
       transform="matrix(3.1982942,0,0,3.1982942,-15.351813,-5.8955227)"
       id="g5306"><g
         id="g5333"><path
           id="path4868"
           d="M 75.3,109.1 C 95.7,101.7 108.7,88.8 115.8,73.6 125.9,51.7 124,13.7 124,13.7 93.7,13.6 75.3,2 75.3,2 c 0,0 -18.4,11.6 -48.7,11.6 0,0 -1.9,38 8.2,59.9 7.1,15.3 20.1,28.2 40.5,35.6"
           class="st1"
           inkscape:connector-curvature="0"
           style="fill:#b2d9f4" /><g
           id="g5319"><g
             id="g4870"><defs
               id="defs4872"><path
                 inkscape:connector-curvature="0"
                 id="SVGID_1_"
                 d="m 29,16 c 0,0 -1.8,36.2 7.8,56.9 6.7,14.5 19.1,26.8 38.5,33.8 19.4,-7 31.8,-19.3 38.5,-33.8 C 123.4,52.1 121.6,16 121.6,16 92.8,16 75.3,4.9 75.3,4.9 75.3,4.9 57.8,16 29,16" /></defs><clipPath
               id="SVGID_2_"><use
                 height="100%"
                 width="100%"
                 y="0"
                 x="0"
                 xlink:href="#SVGID_1_"
                 style="overflow:visible"
                 id="use4876" /></clipPath><g
               class="st2"
               id="g4878"
               clip-path="url(#SVGID_2_)"><rect
                 style="fill:#ffffff"
                 x="27.200001"
                 y="19"
                 class="st3"
                 width="96.099998"
                 height="11.4"
                 id="rect4880" /><rect
                 style="fill:#ffffff"
                 x="27.200001"
                 y="41.599998"
                 class="st3"
                 width="96.099998"
                 height="11.4"
                 id="rect4882" /><polygon
                 style="fill:#ffffff"
                 class="st3"
                 points="123.4,75.5 123.4,64.1 33.7,64.1 35.6,69.5 38.2,75.5 "
                 id="polygon4884" /><polygon
                 style="fill:#ffffff"
                 class="st3"
                 points="98.9,92.8 104.9,86.7 46.1,86.7 51.8,92.7 58.6,98.1 92,98.1 "
                 id="polygon4886" /></g></g><path
             id="path4892"
             d="m 75.4,106.4 -0.1,0 C 57.4,99.9 44.2,88.3 37,72.7 27.6,52.3 29.2,16.5 29.2,16.1 l 0,-0.3 0.3,0 C 57.6,15.8 75,5 75.2,4.9 l 0.2,-0.1 0.2,0.1 c 0.2,0.1 17.6,10.9 45.7,10.9 l 0.3,0 0,0.3 c 0,0.4 1.7,36.2 -7.8,56.6 -7.2,15.6 -20.4,27.2 -38.3,33.7 l -0.1,0 z M 29.8,16.5 c -0.1,3.6 -1.2,36.7 7.7,56 7.1,15.4 20.2,26.9 37.8,33.3 C 93,99.4 106,87.9 113.1,72.5 122,53.2 121,20.1 120.8,16.5 94.3,16.4 77.3,6.7 75.4,5.6 73.5,6.7 56.4,16.4 29.8,16.5 Z"
             class="st4"
             inkscape:connector-curvature="0"
             style="fill:none;stroke:#ffffff;stroke-width:1.73000002" /></g></g></g><g
       transform="matrix(1.0628294,0,0,1.0628294,60.839021,0.500003)"
       id="g5425"><path
         ns3:knockout="Off"
         clip-path="url(#XMLID_6_)"
         d="m 91.978,277.229 c -0.741,-0.328 -1.374,-0.592 -1.898,-0.8 -0.527,-0.208 -0.952,-0.313 -1.277,-0.313 -0.375,0 -0.68,0.085 -0.914,0.264 -0.234,0.173 -0.352,0.349 -0.352,0.516 0,0.278 0.223,0.501 0.665,0.683 0.439,0.185 0.958,0.275 1.556,0.275 0.375,0 0.703,-0.023 0.973,-0.079 0.494,-0.092 0.907,-0.274 1.247,-0.546 m 12.501,-7.772 c 0,2.326 -0.785,4.488 -2.347,6.498 -1.567,2.007 -3.261,3.009 -5.092,3.009 -0.858,0 -1.576,-0.132 -2.162,-0.401 -0.586,-0.269 -1.025,-0.398 -1.324,-0.398 -0.636,0.205 -1.23,0.393 -1.79,0.557 -0.56,0.161 -1.125,0.243 -1.693,0.243 -0.847,0 -1.579,-0.173 -2.203,-0.524 -0.738,-0.419 -1.107,-0.981 -1.107,-1.699 0,-0.466 0.202,-0.864 0.604,-1.189 0.322,-0.258 0.598,-0.387 0.814,-0.387 l 1.734,0 c 0.185,0 0.759,0.205 1.734,0.621 0.325,0.129 0.806,0.343 1.441,0.645 0.428,0 0.812,-0.806 1.157,-2.417 0.345,-1.611 0.688,-3.258 1.04,-4.948 0.519,-2.165 1.154,-3.773 1.91,-4.825 0.155,-0.223 0.387,-0.592 0.691,-1.11 0.304,-0.518 0.601,-0.779 0.885,-0.779 0.17,0 0.384,0.047 0.642,0.138 -0.363,0.609 -0.724,1.21 -1.087,1.808 -0.325,0.729 -0.486,1.4 -0.486,2.01 l 0,4.535 0,1.148 c -0.105,0.858 -0.419,1.74 -0.938,2.648 -0.39,0.686 -0.844,1.318 -1.362,1.887 -0.416,0.469 -0.656,0.703 -0.718,0.703 0.375,0.287 0.814,0.516 1.321,0.686 0.507,0.17 0.908,0.252 1.207,0.252 1.441,0 2.681,-0.668 3.718,-2.004 1.222,-1.573 1.831,-3.756 1.831,-6.548 0,-2.077 -0.498,-4.02 -1.5,-5.821 -1.178,-2.133 -2.684,-3.196 -4.515,-3.196 l -2.687,0 c -0.949,0 -1.998,0.478 -3.155,1.438 -1.286,1.078 -1.928,2.235 -1.928,3.469 0,0.896 0.352,1.644 1.049,2.241 0.598,0.507 1.201,0.759 1.813,0.759 0.091,0 0.343,-0.082 0.75,-0.243 0.407,-0.161 0.847,-0.287 1.313,-0.381 l 0,0.624 c -0.401,0.662 -0.935,1.189 -1.597,1.576 -0.571,0.328 -1.096,0.486 -1.576,0.486 -0.92,0 -1.784,-0.363 -2.59,-1.087 -0.806,-0.729 -1.207,-1.579 -1.207,-2.552 0,-0.899 0.311,-1.887 0.935,-2.962 0.727,-1.263 1.693,-2.282 2.9,-3.056 1.468,-0.949 3.141,-1.424 5.024,-1.424 2.285,0 4.266,0.686 5.938,2.063 1.74,1.43 2.61,3.17 2.61,5.221 l 0,2.686 z"
         id="path47"
         inkscape:connector-curvature="0"
         style="fill:#000000;stroke:none"
         transform="matrix(0.86928562,0,0,0.86928562,20.290073,36.248902)" /><path
         ns3:knockout="Off"
         clip-path="url(#XMLID_6_)"
         d="m 110.786,271.982 c 0,-0.401 -0.067,-0.674 -0.196,-0.814 -0.129,-0.146 -0.349,-0.217 -0.662,-0.217 -0.621,0 -1.116,0.316 -1.479,0.955 -0.363,0.636 -0.718,1.286 -1.069,1.945 l 0,1.541 c 0.753,-0.287 1.315,-0.554 1.693,-0.8 1.142,-0.741 1.713,-1.608 1.713,-2.61 m 3.407,4.254 c -0.598,0.606 -1.09,1.061 -1.479,1.359 -1.169,0.908 -2.206,1.362 -3.117,1.362 l -1.711,0 c -0.677,0 -1.377,-0.325 -2.104,-0.97 -0.87,-0.779 -1.304,-1.705 -1.304,-2.78 0,-0.466 0.205,-1.081 0.621,-1.849 0.521,-0.943 1.169,-1.711 1.948,-2.294 1.011,-0.75 2.142,-1.125 3.387,-1.125 0.961,0 1.641,0.19 2.048,0.583 0.334,0.322 0.504,0.809 0.504,1.459 0,0.97 -0.498,1.813 -1.497,2.525 -0.524,0.375 -1.45,0.841 -2.789,1.395 -0.999,0.419 -1.497,0.756 -1.497,1.017 0,0.258 0.182,0.519 0.545,0.785 0.366,0.264 0.806,0.398 1.324,0.398 0.999,0 1.825,-0.214 2.473,-0.642 0.882,-0.691 1.767,-1.383 2.648,-2.086 l 0,0.863 z"
         id="path49"
         inkscape:connector-curvature="0"
         style="fill:#000000;stroke:none"
         transform="matrix(0.86928562,0,0,0.86928562,20.290073,36.248902)" /><path
         ns3:knockout="Off"
         clip-path="url(#XMLID_6_)"
         d="m 125.719,275.826 c -0.492,0.841 -1.119,1.556 -1.89,2.139 -0.87,0.665 -1.746,0.996 -2.628,0.996 l -1.556,0 c -0.715,0 -1.371,-0.308 -1.969,-0.917 -0.542,-0.557 -0.814,-1.116 -0.814,-1.673 0,-0.261 0.07,-0.507 0.211,-0.741 0.196,-0.325 0.475,-0.486 0.838,-0.486 0.223,0 0.422,0.085 0.606,0.252 0.179,0.167 0.27,0.378 0.27,0.624 0,0.117 -0.079,0.252 -0.234,0.407 -0.363,0.378 -0.574,0.753 -0.642,1.134 l 1.383,0 c 0.741,-0.715 1.184,-1.175 1.327,-1.383 0.387,-0.53 0.58,-1.107 0.58,-1.729 l 0,-1.553 c 0,-0.463 -0.146,-0.87 -0.437,-1.213 -0.29,-0.34 -0.665,-0.513 -1.119,-0.513 -0.56,0 -1.148,0.375 -1.772,1.128 -0.738,0.896 -1.33,2.124 -1.77,3.694 -0.536,1.893 -0.803,4.148 -0.803,6.768 0,0.454 -0.006,0.888 -0.018,1.304 -0.012,0.416 -0.026,0.803 -0.038,1.166 0,0.533 0.021,0.984 0.056,1.359 l -1.907,0 0,-7.623 c 0.082,-0.454 0.158,-0.914 0.234,-1.383 0.223,-1.154 0.437,-2.314 0.645,-3.48 0.284,-1.57 0.571,-3.067 0.855,-4.494 0.129,-0.817 0.267,-1.641 0.407,-2.473 0.287,-1.201 0.729,-1.945 1.327,-2.218 l 0.876,0 0,0.858 c 0,0.469 -0.091,1.084 -0.275,1.852 -0.401,1.699 -0.601,2.651 -0.601,2.862 l 0,1.731 c 0.724,-0.7 1.271,-1.201 1.635,-1.5 0.636,-0.516 1.368,-0.779 2.197,-0.779 1.066,0 1.846,0.337 2.338,1.014 0.39,0.527 0.586,1.236 0.586,2.115 0,1.087 -0.369,2.115 -1.11,3.088 -0.87,0.891 -1.418,1.477 -1.635,1.746 l 1.011,0 c 0.729,-0.088 1.482,-0.504 2.259,-1.245 0.519,-0.507 1.046,-1.011 1.576,-1.518 l 0,0.684 z"
         id="path51"
         inkscape:connector-curvature="0"
         style="fill:#000000;stroke:none"
         transform="matrix(0.86928562,0,0,0.86928562,20.290073,36.248902)" /><path
         ns3:knockout="Off"
         clip-path="url(#XMLID_6_)"
         d="m 137.227,276.136 c 0,0.492 -0.387,1.119 -1.157,1.875 -0.773,0.756 -1.45,1.137 -2.033,1.137 -0.949,0 -1.532,-0.416 -1.755,-1.242 -0.311,-1.154 -0.554,-1.805 -0.721,-1.945 -0.598,0.999 -1.128,1.708 -1.597,2.121 -0.65,0.586 -1.421,0.876 -2.314,0.876 -0.729,0 -1.248,-0.325 -1.562,-0.97 -0.246,-0.51 -0.369,-1.184 -0.369,-2.027 0.053,-0.495 0.105,-0.996 0.158,-1.503 0.182,-1.154 0.434,-2.095 0.759,-2.821 0.454,-1.014 1.031,-1.523 1.731,-1.523 0.132,0 0.246,0.044 0.352,0.129 0.103,0.085 0.281,0.275 0.527,0.574 -0.363,0.363 -0.653,1.195 -0.858,2.493 -0.287,1.755 -0.466,2.754 -0.545,3 l 0,1.772 0.876,0 c 1.286,-1.011 2.25,-2.227 2.9,-3.639 0.352,-0.976 0.706,-1.957 1.072,-2.941 0.325,-0.806 0.832,-1.207 1.518,-1.207 0.117,0 0.223,0.003 0.322,0.009 0.1,0.009 0.19,0.012 0.281,0.012 0.105,0 0.202,-0.009 0.293,-0.021 l 0,1.421 c -0.337,0.375 -0.565,1.017 -0.683,1.925 -0.152,1.219 -0.284,1.992 -0.387,2.317 l 0,1.942 c 0.557,0 1.022,-0.146 1.4,-0.445 0.442,-0.346 0.914,-1.022 1.421,-2.019 0.248,0.179 0.371,0.413 0.371,0.7"
         id="path53"
         inkscape:connector-curvature="0"
         style="fill:#000000;stroke:none"
         transform="matrix(0.86928562,0,0,0.86928562,20.290073,36.248902)" /><path
         ns3:knockout="Off"
         clip-path="url(#XMLID_6_)"
         d="m 141.354,265.578 c 0,0.428 -0.205,0.785 -0.624,1.072 -0.308,0.217 -0.563,0.328 -0.759,0.328 -0.352,0 -0.668,-0.129 -0.952,-0.387 -0.287,-0.261 -0.431,-0.539 -0.431,-0.841 0,-0.325 0.144,-0.647 0.431,-0.97 0.337,-0.381 0.712,-0.565 1.131,-0.565 0.504,0 0.847,0.161 1.031,0.486 0.115,0.209 0.173,0.502 0.173,0.877 m 1.559,10.072 c 0,0.56 -0.363,1.222 -1.09,1.986 -0.847,0.885 -1.746,1.327 -2.707,1.327 -0.7,0 -1.28,-0.337 -1.734,-1.014 -0.349,-0.519 -0.524,-0.993 -0.524,-1.421 l 0,-1.383 c 0.208,-1.172 0.396,-2.042 0.565,-2.613 0.519,-1.746 1.134,-2.613 1.849,-2.613 0.363,0 0.604,0.059 0.721,0.176 0.114,0.117 0.176,0.305 0.176,0.563 -0.012,0.211 -0.018,0.375 -0.018,0.492 0,0.246 -0.176,1.201 -0.521,2.871 -0.34,1.67 -0.513,2.733 -0.513,3.19 0,0.466 0.226,0.7 0.683,0.7 0.272,0 0.636,-0.246 1.087,-0.738 0.624,-0.68 1.245,-1.354 1.869,-2.033 0.067,0.056 0.105,0.094 0.117,0.117 0.028,0.041 0.04,0.17 0.04,0.393"
         id="path55"
         inkscape:connector-curvature="0"
         style="fill:#000000;stroke:none"
         transform="matrix(0.86928562,0,0,0.86928562,20.290073,36.248902)" /><path
         ns3:knockout="Off"
         clip-path="url(#XMLID_6_)"
         d="m 146.514,275.946 0,-1.342 c 0,-0.208 -0.108,-0.554 -0.328,-1.046 -0.144,-0.299 -0.287,-0.604 -0.431,-0.914 -0.36,0.182 -0.65,0.46 -0.864,0.835 -0.214,0.375 -0.428,0.75 -0.636,1.125 0.196,0.117 0.346,0.258 0.448,0.419 0.105,0.164 0.155,0.375 0.155,0.633 0,0.334 -0.1,0.647 -0.299,0.932 -0.202,0.287 -0.305,0.472 -0.305,0.563 0,0.117 0.079,0.246 0.234,0.387 0.155,0.144 0.278,0.217 0.369,0.217 0.223,0 0.524,-0.158 0.917,-0.469 0.494,-0.4 0.74,-0.848 0.74,-1.34 m 4.362,0.46 c -0.337,0.574 -0.841,1.113 -1.518,1.617 -0.817,0.627 -1.564,0.935 -2.241,0.935 l -1.652,0 c -0.574,0 -1.119,-0.22 -1.638,-0.659 -0.715,-0.598 -1.072,-1.43 -1.072,-2.508 0,-0.287 0.507,-1.333 1.523,-3.141 1.011,-1.808 1.605,-2.71 1.79,-2.71 0.311,0 0.498,0.062 0.563,0.196 0.029,0.05 0.041,0.185 0.041,0.407 l 0,1.046 c 0,0.428 0.352,1.025 1.049,1.787 0.703,0.768 1.055,1.523 1.055,2.273 -0.067,0.287 -0.117,0.516 -0.158,0.683 -0.129,0.519 -0.229,0.888 -0.29,1.107 0.7,-0.091 1.16,-0.325 1.38,-0.7 0.272,-0.457 0.662,-0.773 1.169,-0.955 l 0,0.622 z"
         id="path57"
         inkscape:connector-curvature="0"
         style="fill:#000000;stroke:none"
         transform="matrix(0.86928562,0,0,0.86928562,20.290073,36.248902)" /><path
         ns3:knockout="Off"
         clip-path="url(#XMLID_6_)"
         d="m 171.419,260.697 c -1.104,2.777 -1.852,5.9 -2.238,9.366 -0.469,4.195 -0.721,6.354 -0.762,6.486 -0.413,1.608 -1.336,2.417 -2.763,2.417 -0.964,0 -1.444,-0.48 -1.444,-1.444 0,-1.052 0.296,-2.402 0.876,-4.052 0.548,-1.415 1.107,-2.877 1.688,-4.383 0.574,-1.506 0.867,-2.654 0.867,-3.445 0,-0.223 -0.021,-0.428 -0.062,-0.624 l -6.501,6.483 -0.466,0 0,-0.955 9.85,-11.063 0.955,0 0,1.214 z"
         id="path59"
         inkscape:connector-curvature="0"
         style="fill:#000000;stroke:none"
         transform="matrix(0.86928562,0,0,0.86928562,20.290073,36.248902)" /><path
         ns3:knockout="Off"
         clip-path="url(#XMLID_6_)"
         d="m 185.165,263.864 c 0,-0.911 -0.442,-1.661 -1.324,-2.259 -0.662,-0.439 -1.192,-0.662 -1.597,-0.662 -1.143,0 -2.118,0.296 -2.93,0.885 -0.812,0.592 -1.219,1.271 -1.219,2.036 0,0.741 0.592,1.479 1.77,2.221 1.002,0.618 1.708,0.932 2.127,0.932 1.014,0 1.828,-0.425 2.452,-1.283 0.481,-0.666 0.721,-1.287 0.721,-1.87 m -0.741,10.714 c 0,-0.829 -0.48,-1.6 -1.441,-2.314 -0.7,-0.521 -1.594,-0.979 -2.684,-1.386 -0.82,-0.296 -1.307,-0.448 -1.462,-0.448 -0.7,0 -1.421,0.516 -2.162,1.541 -0.674,0.938 -1.011,1.723 -1.011,2.355 0,0.768 0.322,1.5 0.973,2.203 0.595,0.65 1.169,0.976 1.711,0.976 l 3.158,0 c 0.413,0 0.952,-0.234 1.617,-0.7 0.867,-0.628 1.301,-1.366 1.301,-2.227 m 3.662,-10.477 c 0,0.598 -0.261,1.195 -0.779,1.79 -0.129,0.144 -1.09,0.929 -2.883,2.358 1.014,0.82 1.723,1.424 2.124,1.811 0.703,0.688 1.049,1.708 1.049,3.059 0,1.805 -0.688,3.231 -2.071,4.277 -1.383,1.043 -3.29,1.567 -5.716,1.567 -2.555,0 -4.465,-0.504 -5.725,-1.521 -1.049,-0.841 -1.576,-1.96 -1.576,-3.349 0,-0.703 0.39,-1.462 1.169,-2.282 0.598,-0.621 1.324,-1.225 2.18,-1.811 0.416,-0.258 0.838,-0.519 1.266,-0.776 -0.545,-0.612 -1.09,-1.23 -1.638,-1.854 -0.36,-0.636 -0.542,-1.4 -0.542,-2.297 0,-1.143 0.589,-2.306 1.77,-3.486 1.406,-1.406 3.085,-2.104 5.045,-2.104 1.544,0 2.947,0.401 4.204,1.207 1.417,0.909 2.123,2.046 2.123,3.411"
         id="path61"
         inkscape:connector-curvature="0"
         style="fill:#000000;stroke:none"
         transform="matrix(0.86928562,0,0,0.86928562,20.290073,36.248902)" /><path
         ns3:knockout="Off"
         clip-path="url(#XMLID_6_)"
         d="m 202.298,263.864 c 0,-0.911 -0.439,-1.661 -1.321,-2.259 -0.662,-0.439 -1.195,-0.662 -1.6,-0.662 -1.14,0 -2.118,0.296 -2.927,0.885 -0.814,0.592 -1.219,1.271 -1.219,2.036 0,0.741 0.592,1.479 1.77,2.221 1.002,0.618 1.708,0.932 2.124,0.932 1.014,0 1.831,-0.425 2.455,-1.283 0.478,-0.666 0.718,-1.287 0.718,-1.87 m -0.741,10.714 c 0,-0.829 -0.478,-1.6 -1.438,-2.314 -0.703,-0.521 -1.597,-0.979 -2.687,-1.386 -0.817,-0.296 -1.304,-0.448 -1.459,-0.448 -0.703,0 -1.424,0.516 -2.165,1.541 -0.674,0.938 -1.011,1.723 -1.011,2.355 0,0.768 0.325,1.5 0.973,2.203 0.598,0.65 1.172,0.976 1.714,0.976 l 3.155,0 c 0.413,0 0.955,-0.234 1.617,-0.7 0.867,-0.628 1.301,-1.366 1.301,-2.227 m 3.665,-10.477 c 0,0.598 -0.261,1.195 -0.782,1.79 -0.129,0.144 -1.087,0.929 -2.883,2.358 1.017,0.82 1.723,1.424 2.124,1.811 0.703,0.688 1.052,1.708 1.052,3.059 0,1.805 -0.691,3.231 -2.074,4.277 -1.383,1.043 -3.287,1.567 -5.713,1.567 -2.558,0 -4.468,-0.504 -5.725,-1.521 -1.055,-0.841 -1.579,-1.96 -1.579,-3.349 0,-0.703 0.39,-1.462 1.169,-2.282 0.598,-0.621 1.324,-1.225 2.183,-1.811 0.413,-0.258 0.838,-0.519 1.263,-0.776 -0.542,-0.612 -1.09,-1.23 -1.635,-1.854 -0.363,-0.636 -0.542,-1.4 -0.542,-2.297 0,-1.143 0.586,-2.306 1.77,-3.486 1.403,-1.406 3.082,-2.104 5.042,-2.104 1.544,0 2.95,0.401 4.207,1.207 1.414,0.909 2.123,2.046 2.123,3.411"
         id="path63"
         inkscape:connector-curvature="0"
         style="fill:#000000;stroke:none"
         transform="matrix(0.86928562,0,0,0.86928562,20.290073,36.248902)" /><path
         ns3:knockout="Off"
         clip-path="url(#XMLID_6_)"
         d="m 221.634,264.59 c 0,1.69 -0.765,3.196 -2.3,4.518 -0.659,0.574 -2.153,1.532 -4.474,2.886 -1.729,0.996 -2.716,1.86 -2.962,2.59 l 5.842,1.945 c 0.272,0 0.935,-0.422 1.986,-1.266 0.583,-0.466 1.058,-0.779 1.421,-0.935 l 0,0.976 c -1.093,1.529 -2.036,2.522 -2.845,2.977 -0.803,0.454 -1.726,0.683 -2.763,0.683 -0.923,0 -1.969,-0.325 -3.135,-0.976 -1.169,-0.65 -2.071,-0.979 -2.71,-0.979 -0.19,0 -0.691,0.302 -1.497,0.896 -0.478,0.352 -0.952,0.621 -1.421,0.8 l 0,-0.976 c 0.715,-1.181 2.147,-2.707 4.301,-4.582 2.61,-2.256 4.274,-3.794 4.986,-4.597 1.597,-1.808 2.394,-3.536 2.394,-5.183 0,-0.861 -0.384,-1.588 -1.148,-2.186 -0.636,-0.495 -1.228,-0.741 -1.77,-0.741 -0.847,0 -1.717,0.313 -2.61,0.935 -1.181,0.817 -1.772,1.881 -1.772,3.193 0,0.961 0.401,1.594 1.21,1.907 0.647,0.261 1.14,0.519 1.477,0.782 -0.349,0.308 -0.598,0.521 -0.75,0.633 -0.149,0.105 -0.275,0.164 -0.375,0.164 -0.029,0 -0.152,-0.012 -0.375,-0.041 -0.217,-0.026 -0.451,-0.038 -0.697,-0.038 -1.104,0 -1.904,-0.275 -2.405,-0.829 -0.501,-0.551 -0.75,-1.324 -0.75,-2.326 0,-1.491 0.803,-2.813 2.414,-3.949 1.324,-0.923 2.467,-1.386 3.425,-1.386 l 2.669,0 c 0.946,0 1.89,0.39 2.821,1.169 1.209,1.004 1.813,2.313 1.813,3.936"
         id="path65"
         inkscape:connector-curvature="0"
         style="fill:#000000;stroke:none"
         transform="matrix(0.86928562,0,0,0.86928562,20.290073,36.248902)" /></g><g
       id="g892"
       transform="matrix(5.4755644,0,0,-5.4755644,-376.49536,346.51437)" /><g
       id="g896"
       transform="matrix(5.4755644,0,0,-5.4755644,-350.6485,344.96205)" /><g
       id="g900"
       transform="matrix(5.4755644,0,0,-5.4755644,-316.16942,348.10612)" /><g
       id="g904"
       transform="matrix(5.4755644,0,0,-5.4755644,-300.76118,340.51698)" /><g
       id="g908"
       transform="matrix(5.4755644,0,0,-5.4755644,-273.03019,360.4338)" /><g
       id="g912"
       transform="matrix(5.4755644,0,0,-5.4755644,-246.65166,356.22693)" /><g
       id="g916"
       transform="matrix(5.4755644,0,0,-5.4755644,-76.477138,344.19492)" /><g
       id="g920"
       transform="matrix(5.4755644,0,0,-5.4755644,-33.956095,355.59833)" /><g
       id="g924"
       transform="matrix(5.4755644,0,0,-5.4755644,-208.52147,361.2754)" /><g
       id="g928"
       transform="matrix(5.4755644,0,0,-5.4755644,-176.52939,357.01431)" /><g
       id="g932"
       transform="matrix(5.4755644,0,0,-5.4755644,-152.56941,339.94643)" /><g
       id="g936"
       transform="matrix(5.4755644,0,0,-5.4755644,-141.82033,349.19904)" /><g
       id="g4601"><g
         id="g5348"
         transform="matrix(3.1982943,0,0,3.1982943,-15.351813,-5.8955227)"><path
           style="fill:#231f20"
           inkscape:connector-curvature="0"
           class="st0"
           d="m 10.7,130.5 c 0.2,0.1 0.5,0.2 0.8,0.2 l 0,0.4 -6.7,0 0,-0.4 c 0.3,0 0.5,-0.1 0.8,-0.2 0.1,-0.1 0.1,-0.2 0.1,-0.4 l 0,-15.1 c 0,-0.1 0,-0.3 -0.1,-0.4 -0.2,-0.1 -0.5,-0.2 -0.8,-0.2 l 0,-0.4 11.8,0 c 2.4,0 4.1,0.4 5.2,1.3 1.1,0.9 1.6,2.2 1.6,4.1 0,1.5 -0.4,2.7 -1.3,3.5 -0.9,0.9 -2.1,1.5 -3.3,1.8 l 3.8,5.4 c 0.2,0.3 0.5,0.6 0.9,0.6 l 0,0.4 -6.7,0 0,-0.4 c 0.5,0 0.7,-0.2 0.7,-0.6 -0.1,-0.2 -0.2,-0.3 -0.3,-0.5 -0.2,-0.3 -0.4,-0.6 -0.6,-0.9 -0.3,-0.4 -0.5,-0.8 -0.9,-1.2 -0.4,-0.4 -0.6,-0.8 -0.9,-1.2 -0.3,-0.4 -0.5,-0.7 -0.8,-1 -0.3,-0.3 -0.4,-0.5 -0.4,-0.6 l -3.2,0 0,5.4 c 0.2,0.1 0.2,0.3 0.3,0.4 m 5.3,-9.3 c 1,0 1.6,-0.2 2,-0.5 0.7,-0.7 0.7,-1.7 0.1,-2.4 0,0 0,0 -0.1,-0.1 -0.4,-0.4 -1,-0.5 -2,-0.5 l -5.4,0 0,3.6 5.4,-0.1 z"
           id="path4852" /><path
           style="fill:#231f20"
           inkscape:connector-curvature="0"
           class="st0"
           d="m 37.7,130.7 c 0.1,0 0.2,0 0.3,0 0.1,0 0.2,-0.1 0.2,-0.3 0,-0.1 -0.1,-0.3 -0.1,-0.4 -0.1,-0.2 -0.2,-0.4 -0.3,-0.6 -0.1,-0.2 -0.2,-0.4 -0.3,-0.6 -0.1,-0.2 -0.2,-0.4 -0.3,-0.6 l -7.5,0 c -0.1,0.2 -0.1,0.4 -0.2,0.6 -0.1,0.2 -0.2,0.4 -0.3,0.6 -0.1,0.2 -0.2,0.4 -0.3,0.6 -0.1,0.1 -0.1,0.3 -0.1,0.4 0,0.2 0.1,0.2 0.2,0.3 0.1,0 0.2,0 0.3,0 l 0,0.4 -4.8,0 0,-0.4 c 0.1,0 0.3,0 0.4,-0.1 0.1,0 0.2,-0.1 0.3,-0.2 0.6,-1.5 1.3,-3 2,-4.5 0.7,-1.5 1.3,-2.8 1.8,-4 l 1.3,-3 c 0.2,-0.4 0.4,-0.9 0.5,-1.3 0,-0.2 -0.1,-0.3 -0.4,-0.3 l 0,-0.4 6.8,0 0,0.4 c -0.3,0 -0.4,0.1 -0.4,0.3 0.1,0.3 0.2,0.6 0.3,0.9 0.2,0.5 0.5,1.1 0.9,1.9 0.4,0.8 0.8,1.6 1.2,2.5 l 1.3,2.8 c 0.4,0.9 0.9,1.8 1.2,2.6 0.4,0.8 0.7,1.5 0.9,2.1 0,0.1 0.1,0.2 0.3,0.2 0.1,0.1 0.3,0.1 0.4,0.1 l 0,0.4 -5.4,0 0,-0.4 z m -4.4,-10.5 -2.7,5.7 5.4,0 -2.7,-5.7 z"
           id="path4854" /><path
           style="fill:#231f20"
           inkscape:connector-curvature="0"
           class="st0"
           d="M 56.4,122.3 56,122.1 c 0,-0.1 0,-0.2 0.1,-0.3 0,-0.1 0,-0.2 0,-0.3 0,-0.1 -0.1,-0.3 -0.4,-0.5 -0.3,-0.2 -0.7,-0.4 -1,-0.5 -0.5,-0.2 -0.9,-0.3 -1.4,-0.4 -0.5,-0.1 -1.1,-0.2 -1.6,-0.2 -0.6,0 -1.2,0.1 -1.8,0.2 -0.6,0.1 -1.2,0.4 -1.7,0.7 -0.5,0.3 -0.9,0.7 -1.2,1.2 -0.7,1.1 -0.7,2.4 0,3.5 0.3,0.5 0.7,0.9 1.2,1.2 0.5,0.3 1.1,0.6 1.7,0.7 0.6,0.1 1.2,0.2 1.8,0.2 0.6,0 1.2,-0.1 1.8,-0.2 0.5,-0.1 1,-0.3 1.5,-0.6 0.4,-0.2 0.7,-0.4 1,-0.7 0.2,-0.2 0.4,-0.4 0.4,-0.5 l 0,-0.3 c 0,-0.1 0,-0.2 0,-0.3 l 0.4,-0.2 3.1,4.4 -0.4,0.2 C 59.3,129.2 59.1,129 59,129 c -0.2,0.1 -0.5,0.2 -0.7,0.3 -0.4,0.2 -0.9,0.4 -1.5,0.6 -0.7,0.3 -1.5,0.5 -2.2,0.6 -0.9,0.2 -1.9,0.3 -2.8,0.3 -1.2,0 -2.3,-0.1 -3.5,-0.4 -1.1,-0.2 -2.1,-0.6 -3,-1.2 -0.9,-0.6 -1.6,-1.3 -2.1,-2.2 -0.6,-1 -0.8,-2.2 -0.8,-3.4 0,-1.2 0.2,-2.3 0.8,-3.4 0.5,-0.9 1.3,-1.7 2.1,-2.3 0.9,-0.6 2,-1 3,-1.3 1.1,-0.3 2.3,-0.4 3.5,-0.4 0.7,0 1.4,0.1 2.1,0.2 0.7,0.1 1.3,0.2 1.8,0.4 0.6,0.1 1,0.3 1.5,0.4 0.3,0.1 0.6,0.2 0.9,0.2 0.1,0 0.2,0 0.3,-0.1 0.1,-0.1 0.1,-0.1 0.2,-0.2 l 0.4,0.1 -2.6,5.1 z"
           id="path4856" /><path
           style="fill:#231f20"
           inkscape:connector-curvature="0"
           class="st0"
           d="m 66.7,117.2 c -0.3,0 -0.5,0.1 -0.8,0.1 -0.2,0.1 -0.3,0.3 -0.3,0.5 l 0,12.3 c 0,0.2 0.1,0.4 0.3,0.5 0.2,0.1 0.5,0.1 0.8,0.1 l 0,0.4 -6.4,0 0,-0.4 c 0.3,0 0.5,-0.1 0.8,-0.1 0.2,-0.1 0.3,-0.3 0.3,-0.5 l 0,-12.3 c 0,-0.2 -0.1,-0.4 -0.3,-0.5 -0.2,-0.1 -0.5,-0.1 -0.8,-0.1 l 0,-0.4 6.4,0 0,0.4 z"
           id="path4858" /><path
           style="fill:#231f20"
           inkscape:connector-curvature="0"
           class="st0"
           d="m 85.3,130.5 c 0.2,0.1 0.4,0.1 0.6,0.1 l 0,0.4 -6,0 0,-0.4 c 0.2,0 0.4,0 0.6,-0.1 0.2,0 0.3,-0.2 0.3,-0.4 0,-0.2 -0.2,-0.6 -0.7,-1.1 -0.5,-0.5 -1.1,-1.2 -1.8,-2 l -2.5,-2.6 c -0.9,-1 -1.8,-2 -2.7,-3.1 l -0.1,0.1 0,8.5 c 0,0.2 0.1,0.4 0.2,0.5 0.2,0.1 0.4,0.1 0.6,0.1 l 0,0.4 -5.5,0 0,-0.4 c 0.2,0 0.4,-0.1 0.6,-0.1 0.2,-0.1 0.3,-0.3 0.2,-0.5 l 0,-12.3 c 0,-0.2 -0.1,-0.4 -0.3,-0.5 C 68.6,117 68.4,117 68.2,117 l 0,-0.4 7.7,0 0,0.4 c -0.2,0 -0.3,0.1 -0.4,0.1 -0.2,0.1 -0.3,0.3 -0.2,0.5 0.2,0.2 0.3,0.5 0.5,0.7 0.4,0.4 0.8,0.9 1.4,1.5 0.6,0.6 1.2,1.3 1.9,2 0.7,0.7 1.4,1.5 2.1,2.2 l 0,-6.4 c 0,-0.2 -0.1,-0.4 -0.3,-0.5 C 80.7,117 80.5,117 80.3,117 l 0,-0.4 5.7,0 0,0.4 c -0.2,0 -0.4,0.1 -0.6,0.1 -0.2,0.1 -0.3,0.3 -0.3,0.5 l 0,12.3 c -0.1,0.4 0,0.6 0.2,0.6"
           id="path4860" /><path
           style="fill:#231f20"
           inkscape:connector-curvature="0"
           class="st0"
           d="m 102.9,127.7 c 0,0.2 0,0.4 0.2,0.6 0.1,0.2 0.3,0.3 0.5,0.3 l 0.3,0 0,0.4 c -0.5,0.3 -1.1,0.5 -1.8,0.8 -0.7,0.3 -1.4,0.5 -2.2,0.7 -0.8,0.2 -1.6,0.4 -2.4,0.5 -0.8,0.1 -1.6,0.2 -2.5,0.2 -1.2,0 -2.3,-0.1 -3.5,-0.4 -1,-0.2 -1.9,-0.7 -2.7,-1.3 -0.8,-0.6 -1.4,-1.4 -1.8,-2.3 -0.4,-1 -0.7,-2.2 -0.6,-3.3 0,-1.1 0.2,-2.3 0.7,-3.3 0.5,-0.9 1.1,-1.7 1.9,-2.2 0.8,-0.6 1.7,-1.1 2.7,-1.3 1,-0.3 2.1,-0.4 3.2,-0.4 0.8,0 1.5,0 2.2,0.1 0.6,0.1 1.2,0.2 1.8,0.3 0.5,0.1 0.9,0.2 1.3,0.3 0.2,0.1 0.4,0.1 0.7,0.1 0.1,0 0.2,0 0.3,-0.1 0.1,-0.1 0.1,-0.2 0.2,-0.2 l 0.4,0.1 -1.7,4.3 -0.4,-0.2 0,-0.2 c 0,-0.2 -0.2,-0.4 -0.4,-0.6 -0.3,-0.2 -0.7,-0.4 -1.1,-0.5 -0.9,-0.3 -1.8,-0.4 -2.7,-0.4 -0.6,0 -1.3,0.1 -1.9,0.2 -0.6,0.1 -1.1,0.4 -1.6,0.7 -0.4,0.4 -0.8,0.8 -1.1,1.3 -0.3,0.6 -0.4,1.3 -0.4,1.9 0,0.7 0.1,1.4 0.4,2 0.2,0.5 0.6,1 1.1,1.4 0.5,0.4 1,0.6 1.6,0.8 0.6,0.2 1.3,0.3 2,0.3 0.5,0 1.1,0 1.6,-0.1 0.5,-0.1 1,-0.2 1.6,-0.4 l 0,-2.1 -2.7,0 c -0.2,0 -0.4,0.1 -0.5,0.3 -0.1,0.2 -0.1,0.3 -0.1,0.5 l -0.4,0 0,-4 0.4,0 c 0,0.2 0,0.3 0.1,0.5 0.1,0.2 0.3,0.3 0.5,0.3 l 6.7,0 0.1,4.4 z"
           id="path4862" /><path
           style="fill:#231f20"
           inkscape:connector-curvature="0"
           class="st0"
           d="m 114,125.8 0.3,0.2 0,0.3 c 0,1.1 2,1.6 4.1,1.6 2.7,0 5.2,-1.4 5.5,-4.5 -2.2,1.1 -3.9,1.7 -6,1.7 -3.3,0 -6.3,-2.2 -6.3,-5.6 0,-4.1 4.2,-5.6 7.7,-5.6 5.4,0 8.9,2.7 8.9,8.3 0,5.6 -4.6,8.9 -9.8,8.9 -1.4,0 -2.8,-0.2 -4.1,-0.5 -1,-0.3 -1.6,-0.5 -1.8,-0.5 -0.3,0 -0.6,0.1 -0.7,0.4 l -0.4,-0.2 2.6,-4.5 z m 1.9,-6.4 c 0,1.9 2.3,2.4 3.5,2.4 1.2,0 3.5,-0.5 3.5,-2.4 0,-1.9 -2.3,-2.4 -3.5,-2.4 -1.2,0 -3.5,0.5 -3.5,2.4"
           id="path4864" /><path
           style="fill:#231f20"
           inkscape:connector-curvature="0"
           class="st0"
           d="m 144.3,127 c 0.5,0 0.7,-0.1 0.8,-0.7 l 0.4,0 0,5.3 -0.4,0 c -0.1,-0.6 -0.3,-0.7 -1,-0.7 l -14.1,0 c -0.4,0 -0.6,0.2 -0.6,0.7 l -0.4,0 c -0.3,-6 6.2,-8.3 10.4,-10.9 0.6,-0.4 0.9,-0.7 0.9,-1.5 0,-0.8 -0.7,-1.7 -2.3,-1.7 -3,0 -5.4,2.2 -5.4,3 0,0.2 0.1,0.3 0.1,0.5 l -0.4,0.3 -3.4,-4.8 0.4,-0.3 c 0.1,0.2 0.4,0.3 0.6,0.3 0.7,0 3.2,-2.8 8,-2.8 3.7,0 7,2.3 7,5.5 0,4.7 -6.5,5.4 -9.2,7.8 l 8.6,0 z"
           id="path4866" /></g><path
         style="fill:#000000;fill-opacity:1;fill-rule:nonzero;stroke:none"
         id="path942"
         d="m 370.43659,434.05181 c -0.94861,0.061 -1.78944,0.2326 -2.53884,0.46871 -1.00605,0.31483 -1.84961,0.71123 -2.49978,1.21084 -0.65701,0.50644 -1.16943,1.10065 -1.48425,1.75766 -0.31482,0.657 -0.46871,1.31447 -0.46871,1.99201 0,1.00605 0.20264,1.80572 0.58589,2.42166 0.38325,0.6228 0.8683,1.12153 1.48425,1.48425 0.62279,0.35588 1.35435,0.63062 2.14825,0.78118 0.80073,0.15741 1.59356,0.25088 2.42166,0.31248 0.8281,0.0685 1.66,0.12199 2.46073,0.15623 0.79389,0.0274 1.52545,0.0858 2.14825,0.1953 0.62279,0.10949 1.10099,0.30045 1.48424,0.54683 0.38326,0.23952 0.58589,0.59404 0.58589,1.09365 0,0.49961 -0.21432,0.90971 -0.62495,1.21083 -0.41747,0.30798 -0.9162,0.57103 -1.48424,0.74213 -0.56804,0.17793 -1.12319,0.29678 -1.7186,0.35153 -0.58173,0.0547 -1.07562,0.0781 -1.44519,0.0781 -0.49961,0 -1.08212,-0.0721 -1.7186,-0.1953 -0.62963,-0.11636 -1.25405,-0.27024 -1.83578,-0.46871 -0.57489,-0.19847 -1.07845,-0.41078 -1.5233,-0.664 -0.4517,-0.25323 -0.7478,-0.51427 -0.89836,-0.78119 -0.089,-0.15056 -0.11712,-0.31613 -0.11712,-0.50776 l -0.35153,-0.1953 -1.79672,3.98403 0.46871,0.27341 c 0.13004,-0.17109 0.27909,-0.27341 0.42965,-0.27341 0.23953,0 0.53764,0.0701 0.8593,0.23435 0.32851,0.16425 0.77366,0.34151 1.32801,0.54683 0.5612,0.21216 1.22834,0.4031 2.07013,0.54683 0.84179,0.14372 1.87915,0.19529 3.12473,0.19529 0.8897,0 1.88916,-0.0516 2.92943,-0.19529 1.04028,-0.14373 1.99383,-0.44867 2.89038,-0.8593 0.89655,-0.41748 1.62411,-0.96094 2.22637,-1.67954 0.59541,-0.7186 0.89836,-1.63712 0.89836,-2.7732 0,-0.97868 -0.16358,-1.81255 -0.54683,-2.42166 -0.37642,-0.61595 -0.90051,-1.08931 -1.52331,-1.44519 -0.62279,-0.36272 -1.30846,-0.61694 -2.10919,-0.78118 -0.79389,-0.16425 -1.63262,-0.28994 -2.46072,-0.35154 -0.83495,-0.0685 -1.62094,-0.11524 -2.42167,-0.15623 -0.79389,-0.0479 -1.52545,-0.14338 -2.14825,-0.27342 -0.62279,-0.13687 -1.10099,-0.31897 -1.48424,-0.58588 -0.38326,-0.26007 -0.58589,-0.6448 -0.58589,-1.17178 0,-0.36956 0.11687,-0.69104 0.39059,-0.93741 0.27375,-0.25323 0.63712,-0.47439 1.0546,-0.62495 0.41062,-0.15056 0.85377,-0.23719 1.36707,-0.31247 0.51329,-0.0752 1.04423,-0.11712 1.5233,-0.11712 0.62963,0 1.24521,0.0399 1.87484,0.15624 0.63648,0.12324 1.21014,0.3093 1.75766,0.50777 0.54066,0.19847 1.0414,0.41077 1.44519,0.664 0.40379,0.25323 0.68136,0.48206 0.8593,0.74213 0.13004,0.19847 0.23235,0.4732 0.27341,0.78118 l 0.31247,0.11711 2.26543,-4.1012 -0.39059,-0.23436 c -0.1301,0.13023 -0.35609,0.19548 -0.66407,0.19548 -0.2806,0 -0.62343,-0.0955 -1.05459,-0.27341 -0.42432,-0.1711 -0.93957,-0.34836 -1.56237,-0.54683 -0.62279,-0.19847 -1.37773,-0.41479 -2.22637,-0.58588 -0.85549,-0.17794 -1.84409,-0.23436 -3.00755,-0.23436 -0.33706,0 -0.66027,-0.0204 -0.97648,0 z M 0,434.24711 0,434.833 c 0.65017,0 0.97648,0.19578 0.97648,0.58588 l 0,14.88152 c 0,0.39694 -0.32631,0.58589 -0.97648,0.58589 l 0,0.58589 15.58458,0 c 0.32851,0 0.57587,-0.002 0.78119,0.039 0.20532,0.041 0.31247,0.25738 0.31247,0.58589 l 0.58589,0 0,-4.4918 -0.58589,0 c 0,0.26007 -0.10712,0.46754 -0.31247,0.62495 -0.20532,0.15056 -0.45268,0.23435 -0.78119,0.23435 l -10.89749,0 0,-13.04574 c 0,-0.3901 0.32148,-0.58589 0.93742,-0.58589 l 0,-0.58588 -5.62451,0 z m 203.88855,0 0,0.58589 c 0.41748,0 0.62495,0.19578 0.62495,0.58588 l 0,14.88152 c 0,0.39011 -0.20747,0.58589 -0.62495,0.58589 l 0,0.58589 4.96051,0 0,-0.58589 c -0.15056,0 -0.2674,-0.0536 -0.39059,-0.15624 -0.11637,-0.0959 -0.1953,-0.23801 -0.1953,-0.42965 l 0,-6.17134 10.54596,0 0,6.17134 c 0,0.39011 -0.22399,0.58589 -0.70306,0.58589 l 0,0.58589 5.03862,0 0,-0.58589 c -0.15741,0 -0.31331,-0.0536 -0.42965,-0.15624 -0.12324,-0.0959 -0.15623,-0.23801 -0.15623,-0.42965 l 0,-14.88152 c 0,-0.19847 0.033,-0.36605 0.15623,-0.46871 0.11637,-0.0959 0.27224,-0.11711 0.42965,-0.11711 l 0,-0.58589 -5.03862,0 0,0.58589 c 0.47907,0 0.70306,0.19578 0.70306,0.58589 l 0,5.58545 -10.54596,0 0,-5.58545 c 0,-0.19848 0.079,-0.36606 0.1953,-0.46871 0.12324,-0.0959 0.24003,-0.11712 0.39059,-0.11712 l 0,-0.58589 -4.96051,0 z m 63.51011,2.03107 0,3.74968 0.58589,0 c 0,-0.19847 0.0837,-0.34069 0.23435,-0.42965 0.15057,-0.0821 0.29078,-0.11712 0.46871,-0.11712 l 4.25745,0 0,10.89749 c 0,0.1711 -0.0467,0.31531 -0.15624,0.3906 -0.10949,0.0752 -0.20297,0.11711 -0.31247,0.11711 l 0,0.58589 4.21838,0 0,-0.58589 c -0.39694,0 -0.58589,-0.17926 -0.58589,-0.50777 l 0,-10.89749 4.25745,0 c 0.1711,0 0.31815,0.035 0.46871,0.11711 0.15741,0.089 0.23435,0.23118 0.23435,0.42966 l 0.58589,0 0,-3.74968 -0.58589,0 c 0,0.30797 -0.077,0.51544 -0.23435,0.62495 -0.15056,0.10949 -0.29761,0.15623 -0.46871,0.15623 l -11.67868,0 c -0.17793,0 -0.31814,-0.0467 -0.46871,-0.15623 -0.15056,-0.10949 -0.23435,-0.31698 -0.23435,-0.62495 l -0.58589,0 z M 33.2393,436.47367 c 0,0.3901 -0.33799,0.58588 -1.01553,0.58588 l -11.63962,0 0,0.58589 c 0.10262,0 0.20297,0.0419 0.31247,0.11711 0.10949,0.0753 0.15624,0.1736 0.15624,0.35154 l 0,12.26456 c 0,0.17109 -0.0467,0.31531 -0.15624,0.39059 -0.10949,0.0752 -0.20982,0.11711 -0.31247,0.11711 l 0,0.58589 12.03021,0 c 0.26006,0 0.48607,0.0113 0.664,0.039 0.1711,0.0205 0.23436,0.12086 0.23436,0.31247 l 0.58588,0 0,-3.4372 -0.58588,0 c 0,0.19847 -0.0632,0.35237 -0.23436,0.46871 -0.17793,0.12324 -0.40394,0.19529 -0.664,0.19529 l -8.39771,0 0,-3.86685 4.80427,0 c 0.43116,0 0.73695,0.0234 0.97648,0.0781 0.23953,0.0547 0.34185,0.19696 0.27341,0.42965 l 0.664,0 0,-3.47626 -0.58588,0 c 0,0.23953 -0.0955,0.41396 -0.27342,0.46871 -0.17109,0.0547 -0.45067,0.0781 -0.82024,0.0781 l -5.03862,0 0,-3.28097 8.00712,0 c 0.67754,0 1.01553,0.21432 1.01553,0.62495 l 0.58589,0 0,-3.6325 -0.58589,0 z m 136.47253,0 c 0,0.3901 -0.338,0.58588 -1.01554,0.58588 l -11.63961,0 0,0.58589 c 0.10949,0 0.24203,0.0419 0.35153,0.11711 0.10262,0.0753 0.15624,0.1736 0.15624,0.35154 l 0,12.26456 c 0,0.17109 -0.0536,0.31531 -0.15624,0.39059 -0.10949,0.0752 -0.24203,0.11711 -0.35153,0.11711 l 0,0.58589 12.0302,0 c 0.26007,0 0.48608,0.0113 0.66401,0.039 0.1711,0.0205 0.27341,0.12086 0.27341,0.31247 l 0.58589,0 0,-3.4372 -0.58589,0 c 0,0.19847 -0.10236,0.35237 -0.27341,0.46871 -0.17793,0.12324 -0.40394,0.19529 -0.66401,0.19529 l -8.3977,0 0,-3.86685 4.80427,0 c 0.43116,0 0.776,0.0234 1.01553,0.0781 0.23953,0.0547 0.34186,0.19696 0.27342,0.42965 l 0.62494,0 0,-3.47626 -0.58588,0 c 0,0.23953 -0.0633,0.41396 -0.23436,0.46871 -0.17793,0.0547 -0.45067,0.0781 -0.82024,0.0781 l -5.07768,0 0,-3.28097 8.00711,0 c 0.67754,0 1.01554,0.21432 1.01554,0.62495 l 0.58589,0 0,-3.6325 -0.58589,0 z m 177.44554,0 c 0,0.3901 -0.29894,0.58588 -0.97648,0.58588 l -11.63962,0 0,0.58589 c 0.10949,0 0.20297,0.0419 0.31247,0.11711 0.10262,0.0753 0.15624,0.1736 0.15624,0.35154 l 0,12.26456 c 0,0.17109 -0.0536,0.31531 -0.15624,0.39059 -0.10949,0.0752 -0.20297,0.11711 -0.31247,0.11711 l 0,0.58589 12.03021,0 c 0.26691,0 0.44701,0.0113 0.62494,0.039 0.17794,0.0205 0.27342,0.12086 0.27342,0.31247 l 0.58588,0 0,-3.4372 -0.58588,0 c 0,0.19847 -0.0955,0.35237 -0.27342,0.46871 -0.17793,0.12324 -0.35803,0.19529 -0.62494,0.19529 l -8.39771,0 0,-3.86685 4.76521,0 c 0.43116,0 0.77601,0.0234 1.01554,0.0781 0.23953,0.0547 0.34186,0.19696 0.27341,0.42965 l 0.66401,0 0,-3.47626 -0.58589,0 c 0,0.23953 -0.10237,0.41396 -0.27341,0.46871 -0.17794,0.0547 -0.45068,0.0781 -0.82024,0.0781 l -5.03863,0 0,-3.28097 8.00712,0 c 0.67754,0 0.97648,0.21432 0.97648,0.62495 l 0.62494,0 0,-3.6325 -0.62494,0 z m 50.97213,0 c 0,0.3901 -0.33799,0.58588 -1.01553,0.58588 l -11.60056,0 0,0.58589 c 0.10949,0 0.20297,0.0419 0.31247,0.11711 0.10262,0.0753 0.15624,0.1736 0.15624,0.35154 l 0,12.26456 c 0,0.17109 -0.0536,0.31531 -0.15624,0.39059 -0.10949,0.0752 -0.20297,0.11711 -0.31247,0.11711 l 0,0.58589 11.99115,0 c 0.26691,0 0.48607,0.0113 0.664,0.039 0.1711,0.0205 0.27342,0.12086 0.27342,0.31247 l 0.58588,0 0,-3.4372 -0.58588,0 c 0,0.19847 -0.10237,0.35237 -0.27342,0.46871 -0.17793,0.12324 -0.39709,0.19529 -0.664,0.19529 l -8.35865,0 0,-3.86685 4.76521,0 c 0.43801,0 0.77601,0.0234 1.01554,0.0781 0.23952,0.0547 0.34185,0.19696 0.27341,0.42965 l 0.664,0 0,-3.47626 -0.58588,0 c 0,0.23953 -0.10237,0.41396 -0.27342,0.46871 -0.17793,0.0547 -0.45067,0.0781 -0.82024,0.0781 l -5.03862,0 0,-3.28097 7.96806,0 c 0.67754,0 1.01553,0.21432 1.01553,0.62495 l 0.58589,0 0,-3.6325 -0.58589,0 z m 50.97214,0 c 0,0.3901 -0.34483,0.58588 -1.01554,0.58588 l -11.60055,0 0,0.58589 c 0.10261,0 0.20297,0.0419 0.31247,0.11711 0.10262,0.0753 0.15624,0.1736 0.15624,0.35154 l 0,12.26456 c 0,0.17109 -0.0536,0.31531 -0.15624,0.39059 -0.10949,0.0752 -0.20982,0.11711 -0.31247,0.11711 l 0,0.58589 11.99115,0 c 0.26691,0 0.48607,0.0113 0.664,0.039 0.1711,0.0205 0.27341,0.12086 0.27341,0.31247 l 0.58589,0 0,-3.4372 -0.58589,0 c 0,0.19847 -0.10236,0.35237 -0.27341,0.46871 -0.17793,0.12324 -0.39709,0.19529 -0.664,0.19529 l -8.35865,0 0,-3.86685 4.76521,0 c 0.43116,0 0.776,0.0234 1.01553,0.0781 0.23953,0.0547 0.34186,0.19696 0.27342,0.42965 l 0.62494,0 0,-3.47626 -0.58588,0 c 0,0.23953 -0.0564,0.41396 -0.23436,0.46871 -0.1711,0.0547 -0.45067,0.0781 -0.82024,0.0781 l -5.03862,0 0,-3.28097 7.96805,0 c 0.67071,0 1.01554,0.21432 1.01554,0.62495 l 0.58589,0 0,-3.6325 -0.58589,0 z m -393.52053,0.39059 c -1.07448,0 -2.11184,0.12852 -3.12473,0.42965 -1.01973,0.30797 -1.90803,0.78333 -2.69507,1.40613 -0.78705,0.61594 -1.43483,1.3874 -1.9139,2.30448 -0.47907,0.91709 -0.70306,1.97779 -0.70306,3.20285 0,1.22506 0.22399,2.31114 0.70306,3.24191 0.47907,0.92392 1.11516,1.72075 1.87484,2.34354 0.7665,0.6228 1.63144,1.04741 2.61696,1.32801 0.98551,0.2806 2.00835,0.42965 3.00755,0.42965 0.98551,0 1.85529,-0.0564 2.65602,-0.23435 0.79389,-0.17794 1.50693,-0.41763 2.10919,-0.66401 0.60226,-0.25323 1.08731,-0.47237 1.48425,-0.664 0.3901,-0.19847 0.6882,-0.31247 0.8593,-0.31247 0.10949,0 0.28676,0.0857 0.54682,0.19529 l 0.31248,-0.19529 -2.42167,-3.43721 -0.35153,0.31248 c 0.0205,0.089 0.039,0.18243 0.039,0.31247 l 0,0.27341 c 0,0.19847 -0.15389,0.42448 -0.46871,0.66401 -0.31483,0.23953 -0.74345,0.45868 -1.24989,0.664 -0.49961,0.20532 -1.0636,0.39627 -1.67955,0.54683 -0.60911,0.15056 -1.20814,0.23435 -1.79672,0.23435 -0.62963,0 -1.25889,-0.11886 -1.87483,-0.35153 -0.60911,-0.22584 -1.12236,-0.57068 -1.60143,-1.01553 -0.47907,-0.44485 -0.87748,-0.97863 -1.17177,-1.60143 -0.29429,-0.62279 -0.46871,-1.32899 -0.46871,-2.10919 0,-0.78704 0.16959,-1.49324 0.42965,-2.10919 0.26007,-0.60911 0.60774,-1.10583 1.09366,-1.52331 0.47907,-0.41062 1.03622,-0.7321 1.67954,-0.93742 0.64332,-0.20531 1.36805,-0.31247 2.14825,-0.31247 0.657,0 1.2492,0.033 1.79672,0.15624 0.54751,0.11636 1.0414,0.29761 1.44519,0.46871 0.40379,0.17793 0.72526,0.36204 0.93741,0.54683 0.21901,0.19163 0.31248,0.32014 0.31248,0.42965 0,0.0685 0.0254,0.11524 0.039,0.15623 0.006,0.041 0,0.0761 0,0.11712 l 0.35154,0.27341 2.18731,-3.08567 -0.42965,-0.23435 c -0.089,0.0479 -0.15908,0.0946 -0.23436,0.15623 -0.0752,0.0685 -0.17076,0.0781 -0.27341,0.0781 -0.15741,0 -0.38624,-0.0837 -0.74213,-0.23435 -0.34903,-0.15057 -0.80103,-0.3093 -1.32801,-0.50777 -0.52698,-0.19164 -1.11232,-0.35721 -1.79671,-0.50777 -0.69123,-0.15056 -1.47639,-0.23436 -2.30449,-0.23436 z m 125.6141,0 c -2.10107,0 -3.73263,0.42179 -4.88239,1.24989 -1.16346,0.83495 -1.75766,1.92387 -1.75766,3.32002 0,0.94446 0.28643,1.67402 0.82024,2.18731 0.53382,0.5133 1.18444,0.89803 1.99202,1.17178 0.80758,0.27375 1.67935,0.46954 2.61696,0.58588 0.94445,0.12324 1.80938,0.2352 2.61696,0.35154 0.80758,0.12323 1.4904,0.28876 2.03107,0.50776 0.53382,0.21901 0.82024,0.57553 0.82024,1.0546 0,0.41748 -0.16758,0.76916 -0.46871,1.01554 -0.30797,0.25322 -0.6947,0.44901 -1.13271,0.58588 -0.43801,0.14373 -0.87631,0.23236 -1.32801,0.27342 -0.44485,0.041 -0.82474,0.0781 -1.13272,0.0781 -0.3285,0 -0.75312,-0.0467 -1.32801,-0.15623 -0.58172,-0.10949 -1.18277,-0.28393 -1.75766,-0.46871 -0.58172,-0.18478 -1.06677,-0.39025 -1.48424,-0.66401 -0.41748,-0.27375 -0.62495,-0.56985 -0.62495,-0.89836 0,-0.10949 -0.006,-0.21665 0,-0.31247 0.0136,-0.10261 0.039,-0.18444 0.039,-0.27341 l -0.62495,-0.1953 -1.5233,3.67156 0.46871,0.35153 c 0.10949,-0.13004 0.24003,-0.19529 0.39059,-0.19529 0.089,0 0.33149,0.0701 0.74212,0.23435 0.41748,0.16425 0.96011,0.31614 1.56237,0.50777 0.60226,0.18478 1.25971,0.37089 1.99201,0.50777 0.7323,0.14372 1.44133,0.19529 2.18731,0.19529 0.73914,0 1.54082,-0.0467 2.38261,-0.15623 0.84179,-0.10262 1.60641,-0.35404 2.30448,-0.70307 0.70492,-0.34903 1.28544,-0.79018 1.75766,-1.40613 0.46539,-0.60911 0.70307,-1.42446 0.70307,-2.3826 0,-0.95814 -0.24737,-1.71791 -0.78118,-2.26543 -0.53382,-0.54067 -1.2235,-0.93023 -2.03108,-1.21083 -0.80758,-0.28744 -1.67935,-0.50176 -2.61696,-0.62495 -0.9376,-0.11636 -1.80938,-0.23519 -2.61696,-0.35153 -0.80758,-0.12324 -1.49726,-0.30245 -2.03107,-0.50777 -0.54067,-0.20532 -0.78118,-0.53646 -0.78118,-1.01554 0,-0.30797 0.0564,-0.57586 0.23435,-0.78118 0.1711,-0.21215 0.43415,-0.37089 0.74212,-0.50777 0.30798,-0.13003 0.6645,-0.21866 1.0546,-0.27341 0.3901,-0.0547 0.81188,-0.0781 1.24989,-0.0781 1.13608,0 2.12953,0.13053 3.04661,0.39059 0.91708,0.26007 1.59306,0.56785 2.03107,0.93742 0.1711,0.13004 0.28511,0.26055 0.31248,0.39059 0.0205,0.13004 0.0576,0.25372 0.0781,0.39059 l 0.58588,0.1953 1.64049,-3.04661 -0.3906,-0.39059 c -0.13003,0.0616 -0.2235,0.14055 -0.31247,0.19529 -0.089,0.0548 -0.21949,0.0781 -0.39059,0.0781 -0.15741,0 -0.38824,-0.0701 -0.70306,-0.23435 -0.31483,-0.15741 -0.74345,-0.34836 -1.2499,-0.54683 -0.4996,-0.19163 -1.10347,-0.38942 -1.83577,-0.54683 -0.7323,-0.16425 -1.59039,-0.23435 -2.61696,-0.23435 z m 110.10763,0 c -2.10107,0 -3.72578,0.42179 -4.88239,1.24989 -1.16346,0.83495 -1.7186,1.92387 -1.7186,3.32002 0,0.94446 0.24736,1.67402 0.78118,2.18731 0.53382,0.5133 1.22349,0.89803 2.03107,1.17178 0.80758,0.27375 1.67936,0.46954 2.61697,0.58588 0.94445,0.12324 1.80938,0.2352 2.61696,0.35154 0.80758,0.12323 1.45134,0.28876 1.99201,0.50776 0.53382,0.21901 0.82024,0.57553 0.82024,1.0546 0,0.41748 -0.16073,0.76916 -0.46871,1.01554 -0.30797,0.25322 -0.65564,0.44901 -1.09365,0.58588 -0.43802,0.14373 -0.87631,0.23236 -1.32801,0.27342 -0.44485,0.041 -0.82474,0.0781 -1.13272,0.0781 -0.32851,0 -0.78534,-0.0467 -1.36707,-0.15623 -0.57488,-0.10949 -1.14371,-0.28393 -1.7186,-0.46871 -0.58172,-0.18478 -1.10583,-0.39025 -1.5233,-0.66401 -0.41748,-0.27375 -0.62495,-0.56985 -0.62495,-0.89836 0,-0.10949 0.0254,-0.21665 0.039,-0.31247 0.006,-0.10261 0,-0.18444 0,-0.27341 l -0.62495,-0.1953 -1.48424,3.67156 0.46871,0.35153 c 0.10949,-0.13004 0.20097,-0.19529 0.35153,-0.19529 0.089,0 0.37055,0.0701 0.78118,0.23435 0.41748,0.16425 0.92105,0.31614 1.52331,0.50777 0.60226,0.18478 1.25971,0.37089 1.99201,0.50777 0.7323,0.14372 1.48038,0.19529 2.22637,0.19529 0.73914,0 1.50176,-0.0467 2.34355,-0.15623 0.84179,-0.10262 1.60641,-0.35404 2.30448,-0.70307 0.70492,-0.34903 1.29228,-0.79018 1.75766,-1.40613 0.47223,-0.60911 0.70307,-1.42446 0.70307,-2.3826 0,-0.95814 -0.24737,-1.71791 -0.78118,-2.26543 -0.53382,-0.54067 -1.2235,-0.93023 -2.03108,-1.21083 -0.80758,-0.28744 -1.67935,-0.50176 -2.61696,-0.62495 -0.9376,-0.11636 -1.80938,-0.23519 -2.61696,-0.35153 -0.80758,-0.12324 -1.4582,-0.30245 -1.99201,-0.50777 -0.54067,-0.20532 -0.82024,-0.53646 -0.82024,-1.01554 0,-0.30797 0.0955,-0.57586 0.27341,-0.78118 0.1711,-0.21215 0.39509,-0.37089 0.70306,-0.50777 0.30798,-0.13003 0.6645,-0.21866 1.0546,-0.27341 0.3901,-0.0547 0.81188,-0.0781 1.24989,-0.0781 1.13608,0 2.16859,0.13053 3.08567,0.39059 0.91708,0.26007 1.59306,0.56785 2.03107,0.93742 0.1711,0.13004 0.24605,0.26055 0.27342,0.39059 0.0205,0.13004 0.0576,0.25372 0.0781,0.39059 l 0.58588,0.1953 1.64049,-3.04661 -0.35154,-0.39059 c -0.13003,0.0616 -0.26256,0.14055 -0.35153,0.19529 -0.089,0.0548 -0.21949,0.0781 -0.39059,0.0781 -0.15741,0 -0.38824,-0.0701 -0.70306,-0.23435 -0.31483,-0.15741 -0.70439,-0.34836 -1.21084,-0.54683 -0.4996,-0.19163 -1.14253,-0.38942 -1.87483,-0.54683 -0.7323,-0.16425 -1.59039,-0.23435 -2.61696,-0.23435 z m -224.51176,0.19529 0,0.58589 c 0.56804,0 0.8593,0.1402 0.8593,0.46871 l 0,12.26456 c 0,0.32851 -0.29126,0.50777 -0.8593,0.50777 l 0,0.58588 12.85044,0 c 0.26007,0 0.48607,0.0113 0.66401,0.039 0.1711,0.0205 0.23435,0.0955 0.23435,0.27341 l 0.58589,0 0,-3.4372 -0.58589,0 c 0,0.21901 -0.0632,0.39143 -0.23435,0.50777 -0.17794,0.12324 -0.40394,0.1953 -0.66401,0.1953 l -8.82735,0 0,-10.93655 c 0,-0.32851 0.24251,-0.46871 0.74212,-0.46871 l 0,-0.58589 -4.76521,0 z m 18.16248,0 0,0.58589 c 0.36957,0 0.61209,0.035 0.74213,0.11711 0.13003,0.0753 0.19529,0.21266 0.19529,0.3906 l 0,8.28053 c 0,0.67754 0.16759,1.2911 0.46871,1.91389 0.30797,0.6228 0.74427,1.20047 1.36707,1.67954 0.6228,0.47908 1.44984,0.85897 2.42166,1.13272 0.97183,0.27375 2.09097,0.39059 3.39815,0.39059 1.31402,0 2.46537,-0.11686 3.4372,-0.39059 0.96498,-0.27375 1.75981,-0.65364 2.3826,-1.13272 0.6228,-0.47907 1.10501,-1.05674 1.40613,-1.67954 0.30798,-0.62279 0.46871,-1.23635 0.46871,-1.91389 l 0,-8.28053 c 0,-0.32851 0.21715,-0.50777 0.70307,-0.50777 l 0,-0.58589 -4.56992,0 0,0.58589 c 0.54751,0 0.82024,0.17926 0.82024,0.50777 l 0,7.49934 c 0,1.05396 -0.3662,1.90921 -1.13271,2.53885 -0.75967,0.63648 -1.94123,0.93742 -3.51532,0.93742 -1.56724,0 -2.70976,-0.30094 -3.47626,-0.93742 -0.75968,-0.62964 -1.17178,-1.48489 -1.17178,-2.53885 l 0,-7.49934 c 0,-0.32851 0.26306,-0.50777 0.74213,-0.50777 l 0,-0.58589 -4.6871,0 z m 21.71687,0 0,0.58589 c 0.17793,0 0.34352,0.0419 0.50777,0.11711 0.16424,0.0821 0.23435,0.21266 0.23435,0.3906 l 0,12.2255 c 0,0.17793 -0.0701,0.31531 -0.23435,0.39059 -0.16425,0.0821 -0.32984,0.11711 -0.50777,0.11711 l 0,0.58589 10.03819,0 c 0.96498,0 1.80855,-0.10712 2.49978,-0.31247 0.68439,-0.20532 1.21617,-0.51027 1.64048,-0.8593 0.42432,-0.34904 0.73895,-0.7523 0.93742,-1.21084 0.19847,-0.45853 0.31248,-0.9182 0.31248,-1.44518 0,-0.4517 -0.0838,-0.89885 -0.23436,-1.28895 -0.15741,-0.39694 -0.34636,-0.75348 -0.58589,-1.0546 -0.24637,-0.30797 -0.51226,-0.55534 -0.82024,-0.78118 -0.30797,-0.21216 -0.62944,-0.37773 -0.93742,-0.50777 l 0,-0.039 c 0.26007,-0.13004 0.53481,-0.32782 0.78119,-0.54682 0.25323,-0.21901 0.49774,-0.46838 0.70306,-0.74213 0.20532,-0.27375 0.37773,-0.55616 0.50777,-0.89836 0.13004,-0.33534 0.1953,-0.70355 0.1953,-1.09365 0,-0.47907 -0.12087,-0.92906 -0.31248,-1.36707 -0.19847,-0.43801 -0.49457,-0.83643 -0.89836,-1.17177 -0.40379,-0.33535 -0.92104,-0.62861 -1.5233,-0.82025 -0.60226,-0.19847 -1.28109,-0.27341 -2.10919,-0.27341 l -10.19443,0 z m 29.88022,0 0,0.58589 c 0.50644,0 0.78118,0.17926 0.78118,0.50777 l 0,12.2255 c 0,0.32851 -0.27474,0.50777 -0.78118,0.50777 l 0,0.58588 9.25701,0 c 1.28665,0 2.38441,-0.20747 3.28096,-0.62494 0.8897,-0.41063 1.61927,-0.96978 2.18731,-1.64048 0.56804,-0.66386 0.98983,-1.39626 1.24989,-2.26543 0.26007,-0.86233 0.39059,-1.778 0.39059,-2.69508 0,-0.91023 -0.1559,-1.7937 -0.42965,-2.65602 -0.27375,-0.86233 -0.675,-1.63378 -1.24989,-2.30449 -0.58172,-0.66385 -1.34834,-1.18395 -2.26543,-1.60142 -0.91708,-0.41063 -1.99431,-0.62495 -3.28096,-0.62495 z m 96.2807,0 0,0.58589 c 0.0616,0.041 0.14055,0.083 0.1953,0.11711 0.0547,0.0274 0.0781,0.0975 0.0781,0.23436 0,0.1711 -0.0419,0.35519 -0.11712,0.54683 -0.0752,0.18478 -0.18243,0.43415 -0.31247,0.74212 l -4.88239,10.62408 c -0.089,0.1711 -0.22634,0.38056 -0.39059,0.58588 -0.16425,0.21216 -0.35803,0.34954 -0.62495,0.3906 l 0,0.58588 4.37462,0 0,-0.58588 c -0.19847,0 -0.32014,-0.0371 -0.42965,-0.0781 -0.10949,-0.0479 -0.19529,-0.13454 -0.19529,-0.31248 0,-0.10949 0.0234,-0.24686 0.0781,-0.39059 0.0547,-0.14372 0.14539,-0.29761 0.23436,-0.46871 l 0.89836,-1.75766 7.03064,0 0.8593,1.83578 c 0.0685,0.17794 0.15424,0.32015 0.19529,0.42965 0.0479,0.10949 0.039,0.2215 0.039,0.35153 0,0.1711 -0.0399,0.329 -0.15624,0.3906 -0.12323,0.0685 -0.24202,0.0781 -0.35153,0.0781 l 0,0.50777 4.64804,0 0,-0.58588 c -0.15057,-0.041 -0.29961,-0.11312 -0.42965,-0.1953 -0.13004,-0.089 -0.24203,-0.23118 -0.35154,-0.42965 l -5.31203,-11.13185 c -0.10949,-0.23953 -0.21666,-0.47922 -0.31248,-0.664 -0.0959,-0.18479 -0.15623,-0.33867 -0.15623,-0.46871 0,-0.15741 0.0419,-0.25288 0.11711,-0.27341 0.0821,-0.0205 0.16591,-0.0371 0.23436,-0.0781 l 0,-0.58589 -4.96051,0 z m 14.10034,0 0,0.58589 c 0.36957,0 0.61208,0.035 0.74212,0.11711 0.13004,0.0753 0.1953,0.21266 0.1953,0.3906 l 0,8.28053 c 0,0.67754 0.16758,1.2911 0.46871,1.91389 0.30797,0.6228 0.74427,1.20047 1.36707,1.67954 0.62279,0.47908 1.41077,0.85897 2.3826,1.13272 0.97183,0.27375 2.13003,0.39059 3.4372,0.39059 1.31403,0 2.45853,-0.11686 3.43721,-0.39059 0.96497,-0.27375 1.75981,-0.65364 2.3826,-1.13272 0.6228,-0.47907 1.10501,-1.05674 1.40613,-1.67954 0.30797,-0.62279 0.42965,-1.23635 0.42965,-1.91389 l 0,-8.28053 c 0,-0.32851 0.26305,-0.50777 0.74212,-0.50777 l 0,-0.58589 -4.56991,0 0,0.58589 c 0.54751,0 0.82024,0.17926 0.82024,0.50777 l 0,7.49934 c 0,1.05396 -0.36621,1.90921 -1.13272,2.53885 -0.75967,0.63648 -1.94123,0.93742 -3.51532,0.93742 -1.56723,0 -2.74881,-0.30094 -3.51532,-0.93742 -0.75967,-0.62964 -1.13271,-1.48489 -1.13271,-2.53885 l 0,-7.49934 c 0,-0.32851 0.26305,-0.50777 0.74212,-0.50777 l 0,-0.58589 -4.68709,0 z m 67.10355,0 0,0.58589 c 0.50644,0 0.74212,0.17926 0.74212,0.50777 l 0,12.2255 c 0,0.32851 -0.23568,0.50777 -0.74212,0.50777 l 0,0.58588 9.21795,0 c 1.28665,0 2.39127,-0.20747 3.28096,-0.62494 0.89655,-0.41063 1.61928,-0.96978 2.18731,-1.64048 0.56804,-0.66386 0.98983,-1.39626 1.2499,-2.26543 0.26006,-0.86233 0.39059,-1.778 0.39059,-2.69508 0,-0.91023 -0.12362,-1.7937 -0.39059,-2.65602 -0.27376,-0.86233 -0.71407,-1.63378 -1.28895,-2.30449 -0.58173,-0.66385 -1.30929,-1.18395 -2.22637,-1.60142 -0.91709,-0.41063 -2.03338,-0.62495 -3.32003,-0.62495 z m 89.95313,0 0,0.58589 c 0.34903,0 0.57302,0.0419 0.70306,0.11711 0.13688,0.0753 0.1953,0.18044 0.1953,0.35154 l 0,12.26456 c 0,0.17793 -0.0584,0.31531 -0.1953,0.39059 -0.13004,0.0752 -0.35403,0.11711 -0.70306,0.11711 l 0,0.58589 4.96051,0 0,-0.58589 c -0.61595,0 -0.93742,-0.17926 -0.93742,-0.50777 l 0,-12.26456 c 0,-0.32851 0.32147,-0.46871 0.93742,-0.46871 l 0,-0.58588 -4.96051,0 z m 10.58502,0 0,0.58589 c 0.3901,0 0.58588,0.1402 0.58588,0.46871 l 0,12.26456 c 0,0.32851 -0.19578,0.50777 -0.58588,0.50777 l 0,0.58588 4.02309,0 0,-0.58588 c -0.45854,0 -0.66401,-0.17926 -0.66401,-0.50777 l 0,-9.53042 8.1243,8.63206 c 0.26006,0.2806 0.4909,0.56218 0.70306,0.78118 0.20532,0.21901 0.31247,0.34068 0.31247,0.42965 0,0.10949 -0.0837,0.1953 -0.23435,0.1953 l 0,0.58588 4.25744,0 0,-0.58588 c -0.39694,0 -0.58589,-0.17926 -0.58589,-0.50777 l 0,-12.26456 c 0,-0.32851 0.18895,-0.46871 0.58589,-0.46871 l 0,-0.58589 -3.98403,0 0,0.58589 c 0.43801,0 0.62495,0.1402 0.62495,0.46871 l 0,8.90548 -7.85088,-8.31959 c -0.47907,-0.47908 -0.70307,-0.78202 -0.70307,-0.89836 0,-0.0821 0.0447,-0.12887 0.1953,-0.15624 l 0,-0.58589 z m -303.99705,2.42167 5.81981,0 c 0.26006,0 0.52111,0.005 0.78118,0.039 0.26691,0.0274 0.50459,0.11799 0.70306,0.23436 0.19847,0.12324 0.33867,0.30245 0.46871,0.50777 0.13004,0.20532 0.1953,0.47121 0.1953,0.82024 0,0.67754 -0.20547,1.11585 -0.66401,1.32801 -0.45853,0.219 -0.96411,0.35153 -1.48424,0.35153 l -5.81981,0 0,-3.28096 z m 29.88022,0 4.25744,0 c 0.67754,0 1.34385,0.0419 1.95296,0.11711 0.61594,0.0821 1.14288,0.26423 1.60142,0.58589 0.45853,0.31482 0.8199,0.78333 1.09365,1.40613 0.27376,0.62279 0.3906,1.48288 0.3906,2.5779 0,1.09502 -0.11687,1.96679 -0.3906,2.61696 -0.27375,0.64332 -0.63512,1.10299 -1.09365,1.44519 -0.45854,0.33534 -0.98548,0.56135 -1.60142,0.664 -0.60911,0.0959 -1.27542,0.15624 -1.95296,0.15624 l -4.25744,0 0,-9.56948 z m 177.48459,0 4.25744,0 c 0.67755,0 1.30479,0.0419 1.9139,0.11711 0.61595,0.0821 1.14289,0.26423 1.60142,0.58589 0.45854,0.31482 0.81991,0.78333 1.09366,1.40613 0.27375,0.62279 0.42965,1.48288 0.42965,2.5779 0,1.09502 -0.1559,1.96679 -0.42965,2.61696 -0.27375,0.64332 -0.63512,1.10299 -1.09366,1.44519 -0.45853,0.33534 -0.98547,0.56135 -1.60142,0.664 -0.60911,0.0959 -1.23636,0.15624 -1.9139,0.15624 l -4.25744,0 0,-9.56948 z m -82.88343,0.46871 2.65602,5.46827 -4.99957,0 z m 67.45508,2.92943 0,2.73414 7.73371,0 0,-2.73414 z m 49.13636,0 0,2.73414 7.73371,0 0,-2.73414 z m -241.07282,2.30449 5.23392,0 c 1.13608,0 1.93574,0.1402 2.42166,0.46871 0.47908,0.32851 0.70307,0.83891 0.70307,1.5233 0,0.58173 -0.17041,1.03856 -0.54683,1.36707 -0.36957,0.32851 -1.06408,0.50777 -2.07013,0.50777 l -5.74169,0 z"
         inkscape:connector-curvature="0"
         sodipodi:nodetypes="cccsscccccccscccsccccccccsccsscccscccccccscccsccscccccscscsccccssccsccccccscsccccccsscccccsccscccccsscccccsccscccccccccscscccccscsccccccssscccsscccsscccsccccccsccsscccccsccsccccssscccsscccsccccccsccsscccccsccsccccssscccsscccsccccccsccsscccccsccsccccssscccsscccsccccccsccsscccccsccsccccssscccsscccsccccccsccsscccccsccsccccscccssccsscccsccccsssccscsssccsscccsccccccscccccccssscccscccsccsscccccscccscccscccccsccssscccccccscccccccssscccscccsccsscccccscccscccscccccsccssscccccccscccccccssccsccccccscscccccccsscssscscssccccsscscsscccccccsscccscsssccccccscscscsccccssccscccssccsccccscccccccccsscccccscccccccccsccccccccsscssscscssccccsscscssccccccssccscccscccsccccsscccccssccccccssccccscccsccccssccccsccsccccsccsscsccccsccsscccsccccsccsscccsccccccccccccccccccscscscc" /></g></g></svg>